HIERARCHY
ROOT Hips
{
	OFFSET -14.64140 90.27770 -84.91600
	CHANNELS 6 Xposition Yposition Zposition Zrotation Xrotation Yrotation
	JOINT Spine
	{
		OFFSET 0.00000 13.20850 -1.60436
		CHANNELS 3 Zrotation Xrotation Yrotation
		JOINT Spine1
		{
			OFFSET 0.00000 8.61716 0.00000
			CHANNELS 3 Zrotation Xrotation Yrotation
			JOINT Spine2
			{
				OFFSET 0.00000 8.61717 0.00000
				CHANNELS 3 Zrotation Xrotation Yrotation
				JOINT Spine3
				{
					OFFSET 0.00000 8.61717 0.00000
					CHANNELS 3 Zrotation Xrotation Yrotation
					JOINT Neck
					{
						OFFSET 0.00000 11.07920 1.10792
						CHANNELS 3 Zrotation Xrotation Yrotation
						JOINT Neck1
						{
							OFFSET 0.00000 7.08032 0.00000
							CHANNELS 3 Zrotation Xrotation Yrotation
							JOINT Head
							{
								OFFSET 0.00000 7.08031 0.00000
								CHANNELS 3 Zrotation Xrotation Yrotation
								End site
								{
									OFFSET 0.00000 0.00000 0.00000
								}
							}
						}
					}
					JOINT RightShoulder
					{
						OFFSET -0.01000 7.91373 5.19711
						CHANNELS 3 Zrotation Xrotation Yrotation
						JOINT RightArm
						{
							OFFSET -18.41580 0.00000 0.00000
							CHANNELS 3 Zrotation Xrotation Yrotation
							JOINT RightForeArm
							{
								OFFSET -29.11090 0.00000 0.00000
								CHANNELS 3 Zrotation Xrotation Yrotation
								JOINT RightHand
								{
									OFFSET -24.65040 0.00000 0.00000
									CHANNELS 3 Zrotation Xrotation Yrotation
									JOINT RightHandThumb1
									{
										OFFSET -5.35114 -0.85590 3.97906
										CHANNELS 3 Zrotation Xrotation Yrotation
										JOINT RightHandThumb2
										{
											OFFSET -4.52789 0.00000 0.00000
											CHANNELS 3 Zrotation Xrotation Yrotation
											JOINT RightHandThumb3
											{
												OFFSET -2.46976 0.00000 0.00000
												CHANNELS 3 Zrotation Xrotation Yrotation
												End site
												{
													OFFSET 0.00000 0.00000 0.00000
												}
											}
										}
									}
									JOINT RightHandIndex1
									{
										OFFSET -14.26970 0.00000 2.88139
										CHANNELS 3 Zrotation Xrotation Yrotation
										JOINT RightHandIndex2
										{
											OFFSET -5.48836 0.00000 0.00000
											CHANNELS 3 Zrotation Xrotation Yrotation
											JOINT RightHandIndex3
											{
												OFFSET -3.01859 0.00000 0.00000
												CHANNELS 3 Zrotation Xrotation Yrotation
												End site
												{
													OFFSET 0.00000 0.00000 0.00000
												}
											}
										}
									}
									JOINT RightHandMiddle1
									{
										OFFSET -14.26970 0.00000 -0.09147
										CHANNELS 3 Zrotation Xrotation Yrotation
										JOINT RightHandMiddle2
										{
											OFFSET -6.17441 0.00000 0.00000
											CHANNELS 3 Zrotation Xrotation Yrotation
											JOINT RightHandMiddle3
											{
												OFFSET -3.56743 0.00000 0.00000
												CHANNELS 3 Zrotation Xrotation Yrotation
												End site
												{
													OFFSET 0.00000 0.00000 0.00000
												}
											}
										}
									}
									JOINT RightHandRing1
									{
										OFFSET -12.69180 0.00000 -3.06433
										CHANNELS 3 Zrotation Xrotation Yrotation
										JOINT RightHandRing2
										{
											OFFSET -5.62556 0.00000 0.00000
											CHANNELS 3 Zrotation Xrotation Yrotation
											JOINT RightHandRing3
											{
												OFFSET -3.56744 0.00000 0.00000
												CHANNELS 3 Zrotation Xrotation Yrotation
												End site
												{
													OFFSET 0.00000 0.00000 0.00000
												}
											}
										}
									}
									JOINT RightHandPinky1
									{
										OFFSET -11.11390 0.00000 -6.03719
										CHANNELS 3 Zrotation Xrotation Yrotation
										JOINT RightHandPinky2
										{
											OFFSET -4.52789 0.00000 0.00000
											CHANNELS 3 Zrotation Xrotation Yrotation
											JOINT RightHandPinky3
											{
												OFFSET -2.46976 0.00000 0.00000
												CHANNELS 3 Zrotation Xrotation Yrotation
												End site
												{
													OFFSET 0.00000 0.00000 0.00000
												}
											}
										}
									}
								}
							}
						}
					}
					JOINT LeftShoulder
					{
						OFFSET 0.01000 7.91373 5.19711
						CHANNELS 3 Zrotation Xrotation Yrotation
						JOINT LeftArm
						{
							OFFSET 18.41580 0.00000 0.00000
							CHANNELS 3 Zrotation Xrotation Yrotation
							JOINT LeftForeArm
							{
								OFFSET 29.11090 0.00000 0.00000
								CHANNELS 3 Zrotation Xrotation Yrotation
								JOINT LeftHand
								{
									OFFSET 24.65040 0.00000 0.00000
									CHANNELS 3 Zrotation Xrotation Yrotation
									JOINT LeftHandThumb1
									{
										OFFSET 5.35114 -0.85590 3.97906
										CHANNELS 3 Zrotation Xrotation Yrotation
										JOINT LeftHandThumb2
										{
											OFFSET 4.52789 0.00000 0.00000
											CHANNELS 3 Zrotation Xrotation Yrotation
											JOINT LeftHandThumb3
											{
												OFFSET 2.46977 0.00000 0.00000
												CHANNELS 3 Zrotation Xrotation Yrotation
												End site
												{
													OFFSET 0.00000 0.00000 0.00000
												}
											}
										}
									}
									JOINT LeftHandIndex1
									{
										OFFSET 14.26970 0.00000 2.88139
										CHANNELS 3 Zrotation Xrotation Yrotation
										JOINT LeftHandIndex2
										{
											OFFSET 5.48836 0.00000 0.00000
											CHANNELS 3 Zrotation Xrotation Yrotation
											JOINT LeftHandIndex3
											{
												OFFSET 3.01859 0.00000 0.00000
												CHANNELS 3 Zrotation Xrotation Yrotation
												End site
												{
													OFFSET 0.00000 0.00000 0.00000
												}
											}
										}
									}
									JOINT LeftHandMiddle1
									{
										OFFSET 14.26970 0.00000 -0.09147
										CHANNELS 3 Zrotation Xrotation Yrotation
										JOINT LeftHandMiddle2
										{
											OFFSET 6.17440 0.00000 0.00000
											CHANNELS 3 Zrotation Xrotation Yrotation
											JOINT LeftHandMiddle3
											{
												OFFSET 3.56744 0.00000 0.00000
												CHANNELS 3 Zrotation Xrotation Yrotation
												End site
												{
													OFFSET 0.00000 0.00000 0.00000
												}
											}
										}
									}
									JOINT LeftHandRing1
									{
										OFFSET 12.69180 0.00000 -3.06433
										CHANNELS 3 Zrotation Xrotation Yrotation
										JOINT LeftHandRing2
										{
											OFFSET 5.62556 0.00000 0.00000
											CHANNELS 3 Zrotation Xrotation Yrotation
											JOINT LeftHandRing3
											{
												OFFSET 3.56744 0.00000 0.00000
												CHANNELS 3 Zrotation Xrotation Yrotation
												End site
												{
													OFFSET 0.00000 0.00000 0.00000
												}
											}
										}
									}
									JOINT LeftHandPinky1
									{
										OFFSET 11.11390 0.00000 -6.03719
										CHANNELS 3 Zrotation Xrotation Yrotation
										JOINT LeftHandPinky2
										{
											OFFSET 4.52789 0.00000 0.00000
											CHANNELS 3 Zrotation Xrotation Yrotation
											JOINT LeftHandPinky3
											{
												OFFSET 2.46976 0.00000 0.00000
												CHANNELS 3 Zrotation Xrotation Yrotation
												End site
												{
													OFFSET 0.00000 0.00000 0.00000
												}
											}
										}
									}
								}
							}
						}
					}
					JOINT pCube4
					{
						OFFSET 0.00000 10.91090 1.10792
						CHANNELS 3 Zrotation Xrotation Yrotation
						End site
						{
							OFFSET 0.00000 0.00000 0.00000
						}
					}
				}
			}
		}
	}
	JOINT RightUpLeg
	{
		OFFSET -9.98441 0.00000 0.00000
		CHANNELS 3 Zrotation Xrotation Yrotation
		JOINT RightLeg
		{
			OFFSET 0.00000 -42.11790 0.00000
			CHANNELS 3 Zrotation Xrotation Yrotation
			JOINT RightFoot
			{
				OFFSET 0.00000 -45.00020 -0.00001
				CHANNELS 3 Zrotation Xrotation Yrotation
				JOINT RightForeFoot
				{
					OFFSET 0.00000 -3.74820 0.00000
					CHANNELS 3 Zrotation Xrotation Yrotation
					JOINT RightToeBase
					{
						OFFSET 0.00000 0.06325 14.43120
						CHANNELS 3 Zrotation Xrotation Yrotation
						End site
						{
							OFFSET 0.00000 0.00000 0.00000
						}
					}
				}
			}
		}
	}
	JOINT LeftUpLeg
	{
		OFFSET 9.98441 0.00000 0.00000
		CHANNELS 3 Zrotation Xrotation Yrotation
		JOINT LeftLeg
		{
			OFFSET 0.00000 -42.11800 0.00000
			CHANNELS 3 Zrotation Xrotation Yrotation
			JOINT LeftFoot
			{
				OFFSET 0.00000 -45.00070 0.00000
				CHANNELS 3 Zrotation Xrotation Yrotation
				JOINT LeftForeFoot
				{
					OFFSET 0.00000 -3.74824 0.00000
					CHANNELS 3 Zrotation Xrotation Yrotation
					JOINT LeftToeBase
					{
						OFFSET 0.00000 0.06325 14.43110
						CHANNELS 3 Zrotation Xrotation Yrotation
						End site
						{
							OFFSET 0.00000 0.00000 0.00000
						}
					}
				}
			}
		}
	}
}
MOTION
Frames: 4
Frame Time: 0.050000
-0.04288130931989826 -0.0027766047143191223 0.00024253005582888885 -0.038685052466573625 0.03586484221769353 -0.009166603342570809 -4.0062205885303 0.7098638950077915 -0.7311303203121083 -1.106989138459928 3.5616171968722723 0.37309976009014484 -1.2405494011986629 -2.3516791375488446 -2.1841655180419464 -1.5923726384638375 0.2252691376095351 -0.9016520544419915 -1.3990126445125064 13.27528050213205 5.140604924366632 0.36258620579448003 -0.2246752058983213 12.31934940590172 -1.0948128077219228 -15.602342087577505 1.0152989583067376 -6.479404415015939 2.5028971019560564 -15.412612462971786 68.22157175012127 13.875708681119203 -2.6569449203971205 -11.406201405551617 -2.567644692459322 90.4548447794768 25.889696809649084 -0.6236044186018881 -6.431129728250929 4.5238276871826715 -0.12387976690169247 -1.6261263013120473 0.02730422357052089 -0.02516098710480183 -56.24103721016773 0.018725451006224046 0.004821538799631207 -56.24524622857961 -38.79053913426249 0.041600698235328894 -0.009775495770881448 0.0187304835723415 -0.02713077080701175 0.013060969126705924 -0.006185081885407255 -0.013388679509449917 -0.037922961239150066 -36.687425851595926 -0.0077600649867344594 0.046909205638366105 -0.03993037537367433 -0.03363333179051525 -0.0057975572884153646 -0.007502150131270685 -0.011414094796723877 0.0013539970457172093 -19.72269699629448 0.044314688476133755 0.003878625187135464 -0.020782067006579884 -0.03582880022128067 0.0012406785479082082 -0.008196302538919996 -0.04009074354403586 -0.008338492309171722 24.0086948460045 0.008769062431945116 0.030702641960258147 28.851909866374545 0.032520914485122655 -0.014389932528655655 28.89729616882278 0.03774916956116832 -0.028328644707413735 9.425877264374462 2.1205890957372158 12.938985314826594 -70.80232971853916 31.138157380932665 -9.522511139912279 -12.702756303759404 -9.660163497786876 -64.58273165280438 -12.498824719765256 -2.898638430751697 3.8335637874917197 -0.4725278678975279 0.06539141915539508 -8.093568160232845 -0.008584447622907942 -0.017377297783298655 44.527481075143534 -0.0429454717686626 -0.039436067289720246 44.58608196927866 12.43352587055351 0.03575788879355111 -0.031973186349651996 -0.01937598614089143 0.003489594267409637 -0.043856362507027125 -0.02307974139954948 -0.007875212549108642 0.006358460451372913 11.099919929990683 0.006683140136742603 -0.006068177418188879 0.020159712353067568 0.049274966060361906 -0.039767273052279964 -0.023507427683807113 0.0026806874959694983 -0.019357202540256094 4.8090651885095 0.009501441852029101 -0.04364745772765859 -0.04643037490743398 -0.009648405857703126 -0.016114425304252486 0.035842850840986755 -0.02875839385258067 -0.03093218137118222 -5.565622489073202 -0.04623093836601268 0.02426707184793914 -6.743479651051793 -0.04787841574894394 -0.01913945338373883 -6.701356394085258 0.0495385884417302 -0.026844767428831438 -0.0010058507243352925 0.0018604507830090535 0.02050647743284373 8.050335093984456 3.527562110708305 -19.251421966395007 0.033485644305355305 10.420266167445568 -0.028466291202739493 -5.603223851600572 -15.612917909852609 3.228528785516761 -0.0031351616114618113 -0.0013221160589943824 0.009826663467060659 0.006812494510696724 4.648699568759126 -0.036458718319236624 12.497681690297235 -8.231566621579457 6.843211335312882 0.01008240621435942 46.34411230215951 -0.007681437582877072 -4.331118073788735 -14.712788736337805 -3.8295813162859433 0.04703460392672071 -0.043464020537018075 0.040747976777614894 -0.04622532678136334 -10.74274600967991 0.040198152976166523 
-0.006003700511332914 0.025665909726173726 0.0010672543979351498 0.010322856173621558 0.011357118156755152 0.013655580660427281 -3.7074764100020503 0.6623123696953735 -0.7188558316402578 -1.0906165435586281 3.545534178594217 0.389749044012707 -1.1876317175033602 -2.383224772334464 -2.283202210540188 -1.5234896193702152 0.19147089688233712 -0.8976093174395575 -1.3828135738411063 13.353748035706166 5.089509716254784 0.3963880048744311 0.048366202726771265 12.350291399197113 -1.0895961866180444 -15.215297678558732 1.0213237042134522 -6.534806233320556 2.462093198258373 -15.447312651119564 67.4752247249559 14.882478907877873 -2.1550023982047706 -14.76075187111455 -2.893108427174632 91.18865346084009 25.98827832045159 -0.576325845355356 -6.781918894524049 4.518570695658451 -0.11636726821539245 -1.55899403918526 0.018056948104600515 -0.02567926985537808 -56.264488823094645 0.01102758174518483 -0.043302554969396286 -56.250767167598376 -38.81183428147894 -0.031108453116852397 -0.01155943917106544 -0.00516843453100687 0.015136919212525283 0.04815421992825518 -0.00021023055482101107 -0.031350916626411436 0.03080970411240221 -36.72261747642921 0.007901223257564772 0.029340040584147388 0.011631181791309519 0.012212898554465501 0.04452517837582973 -0.03237672116542671 -0.00763963520103004 -0.01385817379795027 -19.721463287795725 -0.005951168610474195 0.03316878313565149 -0.02033941997586704 -0.04677967047819926 -0.04926416836606626 0.015263226370650381 -0.01734255436551649 -0.022419300717033092 24.05589320154392 -0.015927221279445816 0.005387681190496536 28.82486898729178 -0.0015653377759294066 0.04087887143756825 28.897512288496042 0.032368250708406474 -0.04097564554624601 9.658412616024648 2.0997228753362314 12.891027954813431 -70.62120025103616 30.58857509803024 -10.83761485970589 -12.321505853200517 -10.94854403567845 -65.33999367319655 -12.578045061288607 -3.5878387609055973 4.2412306308737415 -0.5073240874711795 0.06310099492787505 -8.141444566534727 -0.003590658567558214 -0.04607421007409499 44.552250401566646 0.04245256851083345 0.008662811668878079 44.56523900091238 12.465309016322019 -0.014296775781344612 0.030897652699789425 -0.010513977865293662 -0.03750871212941517 -0.01999761956145312 0.048229501832224686 -0.036669239048284064 0.033478814454358234 11.149248012631778 0.03288435849224489 0.003228738897955216 -0.006609801074198822 -0.011469838313969069 0.04593773555221465 -0.020516543751764642 0.04513790086131303 0.016618291717798606 4.762593006058739 0.020049688984330034 -0.037355821847767035 -0.037506443706484455 -0.0421564101705283 -0.03228283252036683 0.014513572935156246 -0.04116620025892114 0.04355730273256682 -5.592714661902042 0.0405528572816131 -0.027137825742049478 -6.6812465662014064 -0.039515736946338004 0.02923124125227876 -6.695956870361628 0.03187224747006345 0.003528271420463834 -0.01023527765867617 -0.037311153499323575 -0.03552888582287245 8.026290142686495 3.4946843110180916 -19.219506685435228 0.04295943083176476 10.389266192916432 0.06356448220109336 -5.6521651169412666 -15.666145162203422 3.1468407242212386 0.044090696385531064 0.02248912530343811 -0.04549323995901583 -0.010921738050187523 4.656451835745418 -0.02958172286226838 12.499653208573324 -8.254343948254894 6.871861989316992 -0.014493100547336372 46.41663034060753 0.04332263777739075 -4.311453920182063 -14.79404454578741 -3.8356978844364824 3.928462655413893e-07 0.03583558175016076 -0.003925512066260167 0.00894312135688916 -10.763883830693363 -0.04782529307805955 
0.033171788486611585 0.006558612815633445 0.03192373331222593 -0.04942006795338164 0.019860325032338984 0.023975541393698674 -3.3396184836627865 0.5898208492497303 -0.8001248747648867 -1.0245252807026748 3.5135557996768587 0.403113271950028 -1.2278030532262976 -2.3718397907995676 -2.3133049854216607 -1.3951856919463073 0.23645002393731507 -0.9184339592122461 -1.3306214699539913 13.32040723531155 4.890493500529852 0.415521059557031 0.24433816279428303 11.682094823767097 -1.0816815186329387 -14.784986683142277 0.9589041817039493 -6.436858698910091 2.4971164467189637 -15.391105540379595 66.96341263944899 16.3475879509542 -1.5914322361800792 -17.488290471271995 -3.008180460915273 91.82363345403843 26.178880759497883 -0.5468894447406059 -7.170761864745465 4.498428203605507 -0.17007653364740255 -1.6423741279377806 0.0013883863371120645 -0.023611948108266268 -56.277005920395155 -0.03135790129710355 0.0297367087204308 -56.200693150064886 -38.72122137769835 -0.012813552387456966 0.008844295511479692 -0.0008909532663668753 0.019442299138542878 0.0012559693931722775 0.006038463188070375 -0.03655475455131295 0.004898907828442509 -36.68612436540794 0.009933876900537906 0.025404768745128387 -0.007457446448562964 0.042761475768559126 0.01577120680652035 0.042850864900633036 -0.04548650881672343 0.03162901512084539 -19.72565281542611 -0.015904976812067633 -0.0010573664803463314 0.03939088055799109 -0.005343518004507297 0.019491177394660324 0.01795721683179365 -0.034365566103799546 0.028128105831048508 24.05615150219902 0.01996213754392868 -0.02108926009533177 28.86769757426305 0.011904096865944801 -0.046521276254342984 28.91038821396169 0.024331339393315273 0.008193911378314156 9.567505488423219 2.1277972366212814 12.878333145276702 -70.3764365137874 30.35718173259958 -11.54598980724032 -12.375866581699322 -11.11732481100376 -66.29073727804887 -13.079206444518883 -4.389371652913214 4.70384938306658 -0.46424903576028465 0.10374920066920734 -8.152056434177279 -0.023676036922189683 -0.0016229986537711913 44.54395961211079 0.019179369276733752 -0.032887201516600066 44.58923141037057 12.440653489543532 0.04584741247848093 -0.009744063416124724 0.015861478200946386 0.03092398771589026 -0.010254184919176066 -0.021362626175063824 -0.001206007556238954 0.01980145506734002 11.086206135247354 -0.021990792149908327 -0.029400432878276133 -0.014608257245388508 -0.009299669104831706 -0.034310015717996134 0.01738409667190725 0.006388087846249643 0.03783761624344492 4.780780702620085 0.033792095177584344 0.045308198133204025 0.034903920776315156 0.02112725179587643 0.033376603633378944 0.021786483207585944 0.011466194661368955 0.011991825747647419 -5.63963261448813 0.04534876065358176 0.049222547046738965 -6.754711193166823 0.003962786978965349 -0.012615276863472963 -6.719982887797958 -0.006479382507652206 -0.04170620983413567 -0.04385262296354056 0.010292168719793398 0.0003072338738045479 8.06222840554643 3.5287699549338796 -19.19116176488403 -0.048792162615421644 10.376160253979 0.0035095432880573006 -5.583948192136075 -15.70368104451573 3.172576315443278 -0.031091439505028465 -0.025765612346368465 0.029557126295945906 0.030022550614936104 4.714121117512631 -0.04766521491736448 12.430862262372813 -8.228437180201443 6.857701198264122 0.012108658650449978 46.41884979942854 -0.00269938636609987 -4.291453927315975 -14.750641549634077 -3.801727839715331 0.0033615253148606347 0.049217785752160535 -0.032500329727108306 -0.028190385386496715 -10.72645073136146 -0.005448647103084879 
0.014879904618147744 0.025340220439904578 0.015396755807858112 0.04653765894553097 -0.023177311821789726 -0.02384485506320072 -3.112716424871574 0.4105478582992098 -0.869743397855834 -1.033035121090056 3.5022667762424224 0.3427273940636966 -1.2274987909490407 -2.3239415045618754 -2.21998199455318 -1.3107460341294321 0.19944843653410843 -0.8615014519254844 -1.128676816428404 13.324739664814212 4.367952637721947 0.36779378262747453 0.4293221734629291 10.517453330590047 -1.0001226265573457 -14.440065105647236 0.840072119506485 -6.276868678824219 2.4433808159408597 -15.350895890479023 66.70242027394673 18.38746968982507 -0.8814626660460962 -19.10034215695362 -2.7498168375487992 92.61458087113441 26.35106431917819 -0.5740812853098053 -7.584203493589532 4.566151236546771 -0.08931121862523847 -1.582248224483759 0.007290884888316593 0.03018982691097044 -56.22222748112422 0.028839762980439308 -0.049034886247670835 -56.242132912576174 -38.758942097734845 -0.012021467760935527 -0.03640191040911298 0.03158709243486123 -0.03411740400299723 0.005755208733107822 0.02447510690177315 0.023516443476947684 -0.0028344338395632947 -36.672878885812835 0.009399114606574764 -0.027275361029089323 0.007905229128454526 -0.03100543599488507 0.03362637113249033 -0.007107126556935559 0.04909409565528198 0.01070693463276431 -19.79093434810874 0.042969514017489566 0.008467156334015952 -0.03523798301842932 -0.008254300670173792 -0.0002980505409666797 0.02319678538301884 0.04132170374101071 -0.0004825134284986989 24.041085243535196 0.006205626895570926 -0.01939642978034265 28.890180706073142 0.0012047390909853343 -0.0025596776451263853 28.85017655179314 0.04801449486381516 0.0406419181780891 9.402208018720101 2.104379656310809 12.840144530550822 -70.12952199258604 30.421338895327427 -11.673788648693888 -12.884153941761408 -10.880942450955645 -66.74171335232559 -13.66342636757886 -4.814849159263202 5.0051631628803905 -0.5189152746335056 0.05321873327677324 -8.107950302640658 0.02464347084212048 -0.025289362342651032 44.5871053929714 -0.04981542990260516 -0.014183024019994732 44.52198853866531 12.467299090267927 -0.032056476278622105 0.027470592262218336 0.006405803936794642 0.019790896386099172 0.03939057314845837 -0.018568713289938102 -0.007586403361872814 -0.04404595350014039 11.109819661689427 -0.03646448864500369 -0.008782057271319246 0.01743428880637623 0.022146234052535588 0.03753319827829132 -0.03512423347666921 0.004516039950567621 -0.0032611598769106804 4.796516220688925 0.0056904006634479675 0.009080747338555913 -0.04966902296505578 0.03322462995741863 0.032552879720670704 -0.010727397289109701 -0.013028829479845516 -0.0016949549779364142 -5.5566172323378735 -0.03677241673982429 -0.03844970255954415 -6.704862373576633 -0.014271301563485328 -0.01603188254432117 -6.767397923227972 -0.02876981636384507 0.02443440432913444 -0.012947419846540228 -0.0009222621695693505 0.013015986780107533 8.058188115440835 3.539845106909502 -19.191232193399745 -0.033020000491694436 10.398969247037432 -0.031949939802428495 -5.634282064830914 -15.67832771836534 3.239716290013047 0.02498773560662374 0.008530663676790933 0.02980729727905227 0.004922903214303543 4.686443998015749 0.04054970233904511 12.427291619964311 -8.228032001046016 6.844756771453317 -0.004789526017620968 46.42927660285876 0.01726370858535186 -4.357200656210244 -14.765681822247215 -3.8184344352022346 -0.03142258828781266 0.00247770273405424 0.022889003645369704 0.043162646831864535 -10.792780931261651 0.027464631183777306 
